<svg width="18" height="18" viewBox="0 0 18 18" fill="none" xmlns="http://www.w3.org/2000/svg">
<g id="Icon_Close_Dialog">
<path id="Close icon" fill-rule="evenodd" clip-rule="evenodd" d="M14.9351 3.06779C13.3612 1.45397 11.2117 0.530766 8.95821 0.500755C6.70474 0.470744 4.53141 1.33638 2.91512 2.90771C2.13572 3.70719 1.52134 4.65244 1.10706 5.68948C0.692788 6.72651 0.486733 7.83504 0.500662 8.95175C0.514591 10.0685 0.748231 11.1715 1.18824 12.1979C1.62825 13.2242 2.26602 14.1538 3.06512 14.9336C3.84451 15.7331 4.77366 16.3712 5.79953 16.8114C6.8254 17.2516 7.92789 17.4854 9.04405 17.4993C10.1602 17.5133 11.2682 17.3071 12.3047 16.8926C13.3413 16.4782 14.286 15.8635 15.0851 15.0837C15.8645 14.2852 16.4788 13.3408 16.8931 12.3046C17.3074 11.2684 17.5135 10.1606 17.4996 9.04463C17.4856 7.92867 17.252 6.8264 16.8119 5.80084C16.3719 4.77529 15.7342 3.84657 14.9351 3.06779ZM14.0951 12.6025L12.6151 14.0832L9.01512 10.4814L5.41512 14.0832L3.91512 12.6025L7.51512 9.00071L3.91512 5.39894L5.40512 3.9082L9.00512 7.50997L12.6051 3.9082L14.0851 5.38893L10.4851 8.9907L14.0951 12.6025Z" fill="white"/>
</g>
</svg>
